<mxfile host="app.diagrams.net" modified="2020-10-22T10:55:12.669Z" agent="5.0 (Windows NT 10.0; Win64; x64) AppleWebKit/537.36 (KHTML, like Gecko) Chrome/86.0.4240.75 Safari/537.36" etag="JIiz3s9FtmHa_rywPTEV" version="13.8.1" type="github">
  <diagram id="p1-o60XN3pzjEzgT1OOZ" name="第 1 页">
    <mxGraphModel dx="2875" dy="1949" grid="1" gridSize="10" guides="1" tooltips="1" connect="1" arrows="1" fold="1" page="1" pageScale="1" pageWidth="827" pageHeight="1169" math="0" shadow="0">
      <root>
        <mxCell id="0" />
        <mxCell id="1" parent="0" />
        <mxCell id="lgo9fEez4VAcPB54e2uQ-43" value="" style="rounded=0;whiteSpace=wrap;html=1;dashed=1;strokeWidth=1;" vertex="1" parent="1">
          <mxGeometry x="-45" y="-90" width="575" height="250" as="geometry" />
        </mxCell>
        <mxCell id="T4DYZ1FT2uXp3QGceV7x-27" value="" style="rounded=0;whiteSpace=wrap;html=1;" parent="1" vertex="1">
          <mxGeometry x="-80" y="950" width="470" height="140" as="geometry" />
        </mxCell>
        <mxCell id="lgo9fEez4VAcPB54e2uQ-24" style="edgeStyle=none;rounded=0;orthogonalLoop=1;jettySize=auto;html=1;exitX=0.5;exitY=1;exitDx=0;exitDy=0;entryX=0.5;entryY=0;entryDx=0;entryDy=0;" edge="1" parent="1" source="lgo9fEez4VAcPB54e2uQ-17" target="T4DYZ1FT2uXp3QGceV7x-24">
          <mxGeometry relative="1" as="geometry">
            <mxPoint x="820" y="850" as="sourcePoint" />
          </mxGeometry>
        </mxCell>
        <mxCell id="lgo9fEez4VAcPB54e2uQ-31" style="edgeStyle=none;rounded=0;orthogonalLoop=1;jettySize=auto;html=1;exitX=0.5;exitY=1;exitDx=0;exitDy=0;entryX=0.5;entryY=0;entryDx=0;entryDy=0;" edge="1" parent="1" source="lgo9fEez4VAcPB54e2uQ-19" target="T4DYZ1FT2uXp3QGceV7x-24">
          <mxGeometry relative="1" as="geometry" />
        </mxCell>
        <mxCell id="lgo9fEez4VAcPB54e2uQ-19" value="" style="rounded=0;whiteSpace=wrap;html=1;dashed=1;strokeColor=#67AB9F;strokeWidth=2;" vertex="1" parent="1">
          <mxGeometry x="930" y="720" width="200" height="110" as="geometry" />
        </mxCell>
        <mxCell id="lgo9fEez4VAcPB54e2uQ-30" style="edgeStyle=none;rounded=0;orthogonalLoop=1;jettySize=auto;html=1;exitX=0.5;exitY=1;exitDx=0;exitDy=0;entryX=0.5;entryY=0;entryDx=0;entryDy=0;" edge="1" parent="1" source="lgo9fEez4VAcPB54e2uQ-18" target="T4DYZ1FT2uXp3QGceV7x-24">
          <mxGeometry relative="1" as="geometry" />
        </mxCell>
        <mxCell id="lgo9fEez4VAcPB54e2uQ-18" value="" style="rounded=0;whiteSpace=wrap;html=1;dashed=1;strokeColor=#7EA6E0;strokeWidth=2;" vertex="1" parent="1">
          <mxGeometry x="820" y="720" width="100" height="110" as="geometry" />
        </mxCell>
        <mxCell id="lgo9fEez4VAcPB54e2uQ-17" value="" style="rounded=0;whiteSpace=wrap;html=1;dashed=1;strokeColor=#FF6666;strokeWidth=2;" vertex="1" parent="1">
          <mxGeometry x="510" y="720" width="300" height="110" as="geometry" />
        </mxCell>
        <mxCell id="T4DYZ1FT2uXp3QGceV7x-1" value="&lt;font face=&quot;Comic Sans MS&quot; style=&quot;font-size: 14px&quot;&gt;&lt;b&gt;kube-api-server&lt;/b&gt;&lt;/font&gt;" style="rounded=1;whiteSpace=wrap;html=1;" parent="1" vertex="1">
          <mxGeometry x="310" width="160" height="60" as="geometry" />
        </mxCell>
        <mxCell id="T4DYZ1FT2uXp3QGceV7x-3" value="&lt;font face=&quot;Comic Sans MS&quot;&gt;&lt;b&gt;Master&lt;/b&gt;&lt;/font&gt;" style="text;html=1;resizable=0;autosize=1;align=center;verticalAlign=middle;points=[];fillColor=none;strokeColor=none;rounded=0;" parent="1" vertex="1">
          <mxGeometry x="460" y="120" width="60" height="20" as="geometry" />
        </mxCell>
        <mxCell id="lgo9fEez4VAcPB54e2uQ-42" style="edgeStyle=orthogonalEdgeStyle;curved=1;rounded=0;orthogonalLoop=1;jettySize=auto;html=1;exitX=0.005;exitY=0.63;exitDx=0;exitDy=0;exitPerimeter=0;" edge="1" parent="1" source="T4DYZ1FT2uXp3QGceV7x-5" target="T4DYZ1FT2uXp3QGceV7x-1">
          <mxGeometry relative="1" as="geometry" />
        </mxCell>
        <mxCell id="T4DYZ1FT2uXp3QGceV7x-5" value="" style="html=1;dashed=0;whitespace=wrap;fillColor=#2875E2;strokeColor=#ffffff;points=[[0.005,0.63,0],[0.1,0.2,0],[0.9,0.2,0],[0.5,0,0],[0.995,0.63,0],[0.72,0.99,0],[0.5,1,0],[0.28,0.99,0]];shape=mxgraph.kubernetes.icon;prIcon=user;rounded=1;" parent="1" vertex="1">
          <mxGeometry x="860" y="-10" width="50" height="48" as="geometry" />
        </mxCell>
        <mxCell id="T4DYZ1FT2uXp3QGceV7x-7" value="&lt;font face=&quot;Comic Sans MS&quot;&gt;&lt;b&gt;Pod&lt;/b&gt;&lt;/font&gt;" style="text;html=1;resizable=0;autosize=1;align=center;verticalAlign=middle;points=[];fillColor=none;strokeColor=none;rounded=0;" parent="1" vertex="1">
          <mxGeometry x="590" y="-10" width="40" height="20" as="geometry" />
        </mxCell>
        <mxCell id="T4DYZ1FT2uXp3QGceV7x-19" style="edgeStyle=none;rounded=0;orthogonalLoop=1;jettySize=auto;html=1;exitX=0.5;exitY=1;exitDx=0;exitDy=0;entryX=0.5;entryY=0;entryDx=0;entryDy=0;" parent="1" source="T4DYZ1FT2uXp3QGceV7x-9" target="T4DYZ1FT2uXp3QGceV7x-10" edge="1">
          <mxGeometry relative="1" as="geometry" />
        </mxCell>
        <mxCell id="T4DYZ1FT2uXp3QGceV7x-20" style="edgeStyle=none;rounded=0;orthogonalLoop=1;jettySize=auto;html=1;exitX=0.5;exitY=1;exitDx=0;exitDy=0;entryX=0.5;entryY=0;entryDx=0;entryDy=0;" parent="1" source="T4DYZ1FT2uXp3QGceV7x-9" target="T4DYZ1FT2uXp3QGceV7x-11" edge="1">
          <mxGeometry relative="1" as="geometry" />
        </mxCell>
        <mxCell id="T4DYZ1FT2uXp3QGceV7x-9" value="&lt;font face=&quot;Comic Sans MS&quot; style=&quot;font-size: 14px&quot;&gt;&lt;b&gt;Kubelet&lt;/b&gt;&lt;/font&gt;" style="rounded=1;whiteSpace=wrap;html=1;" parent="1" vertex="1">
          <mxGeometry x="280" y="300" width="160" height="60" as="geometry" />
        </mxCell>
        <mxCell id="T4DYZ1FT2uXp3QGceV7x-17" style="rounded=0;orthogonalLoop=1;jettySize=auto;html=1;exitX=0.5;exitY=1;exitDx=0;exitDy=0;" parent="1" source="T4DYZ1FT2uXp3QGceV7x-10" target="T4DYZ1FT2uXp3QGceV7x-14" edge="1">
          <mxGeometry relative="1" as="geometry" />
        </mxCell>
        <mxCell id="T4DYZ1FT2uXp3QGceV7x-18" style="edgeStyle=none;rounded=0;orthogonalLoop=1;jettySize=auto;html=1;exitX=0.5;exitY=1;exitDx=0;exitDy=0;entryX=0.55;entryY=0.017;entryDx=0;entryDy=0;entryPerimeter=0;" parent="1" source="T4DYZ1FT2uXp3QGceV7x-10" target="T4DYZ1FT2uXp3QGceV7x-16" edge="1">
          <mxGeometry relative="1" as="geometry" />
        </mxCell>
        <mxCell id="T4DYZ1FT2uXp3QGceV7x-10" value="&lt;font face=&quot;Comic Sans MS&quot; style=&quot;font-size: 14px&quot;&gt;&lt;b&gt;CRI&lt;/b&gt;&lt;/font&gt;" style="rounded=1;whiteSpace=wrap;html=1;" parent="1" vertex="1">
          <mxGeometry x="107" y="420" width="160" height="60" as="geometry" />
        </mxCell>
        <mxCell id="T4DYZ1FT2uXp3QGceV7x-21" style="edgeStyle=none;rounded=0;orthogonalLoop=1;jettySize=auto;html=1;exitX=0.5;exitY=1;exitDx=0;exitDy=0;entryX=0.5;entryY=0;entryDx=0;entryDy=0;" parent="1" source="T4DYZ1FT2uXp3QGceV7x-11" target="T4DYZ1FT2uXp3QGceV7x-12" edge="1">
          <mxGeometry relative="1" as="geometry" />
        </mxCell>
        <mxCell id="T4DYZ1FT2uXp3QGceV7x-22" style="edgeStyle=none;rounded=0;orthogonalLoop=1;jettySize=auto;html=1;exitX=0.5;exitY=1;exitDx=0;exitDy=0;entryX=0.5;entryY=0;entryDx=0;entryDy=0;" parent="1" source="T4DYZ1FT2uXp3QGceV7x-11" target="T4DYZ1FT2uXp3QGceV7x-13" edge="1">
          <mxGeometry relative="1" as="geometry" />
        </mxCell>
        <mxCell id="T4DYZ1FT2uXp3QGceV7x-11" value="&lt;font face=&quot;Comic Sans MS&quot; style=&quot;font-size: 14px&quot;&gt;&lt;b&gt;Network Driver&lt;/b&gt;&lt;/font&gt;" style="rounded=1;whiteSpace=wrap;html=1;dashed=1;" parent="1" vertex="1">
          <mxGeometry x="640" y="450" width="160" height="60" as="geometry" />
        </mxCell>
        <mxCell id="T4DYZ1FT2uXp3QGceV7x-12" value="&lt;font face=&quot;Comic Sans MS&quot; style=&quot;font-size: 14px&quot;&gt;&lt;b&gt;kebenet&lt;/b&gt;&lt;/font&gt;" style="rounded=1;whiteSpace=wrap;html=1;" parent="1" vertex="1">
          <mxGeometry x="540" y="560" width="160" height="60" as="geometry" />
        </mxCell>
        <mxCell id="lgo9fEez4VAcPB54e2uQ-23" style="edgeStyle=none;rounded=0;orthogonalLoop=1;jettySize=auto;html=1;entryX=0.5;entryY=0;entryDx=0;entryDy=0;exitX=0.5;exitY=1;exitDx=0;exitDy=0;" edge="1" parent="1" source="T4DYZ1FT2uXp3QGceV7x-13" target="lgo9fEez4VAcPB54e2uQ-17">
          <mxGeometry relative="1" as="geometry">
            <mxPoint x="840" y="630" as="sourcePoint" />
            <mxPoint x="820" y="700" as="targetPoint" />
          </mxGeometry>
        </mxCell>
        <mxCell id="lgo9fEez4VAcPB54e2uQ-25" style="edgeStyle=none;rounded=0;orthogonalLoop=1;jettySize=auto;html=1;exitX=0.5;exitY=1;exitDx=0;exitDy=0;entryX=0.5;entryY=0;entryDx=0;entryDy=0;" edge="1" parent="1" source="T4DYZ1FT2uXp3QGceV7x-13" target="lgo9fEez4VAcPB54e2uQ-18">
          <mxGeometry relative="1" as="geometry" />
        </mxCell>
        <mxCell id="lgo9fEez4VAcPB54e2uQ-26" style="edgeStyle=none;rounded=0;orthogonalLoop=1;jettySize=auto;html=1;exitX=0.5;exitY=1;exitDx=0;exitDy=0;entryX=0.36;entryY=-0.027;entryDx=0;entryDy=0;entryPerimeter=0;" edge="1" parent="1" source="T4DYZ1FT2uXp3QGceV7x-13" target="lgo9fEez4VAcPB54e2uQ-19">
          <mxGeometry relative="1" as="geometry" />
        </mxCell>
        <mxCell id="T4DYZ1FT2uXp3QGceV7x-13" value="&lt;font face=&quot;Comic Sans MS&quot; style=&quot;font-size: 14px&quot;&gt;&lt;b&gt;CNI&lt;/b&gt;&lt;/font&gt;" style="rounded=1;whiteSpace=wrap;html=1;" parent="1" vertex="1">
          <mxGeometry x="760" y="560" width="160" height="60" as="geometry" />
        </mxCell>
        <mxCell id="T4DYZ1FT2uXp3QGceV7x-35" style="edgeStyle=none;rounded=0;orthogonalLoop=1;jettySize=auto;html=1;exitX=0.5;exitY=1;exitDx=0;exitDy=0;entryX=0.5;entryY=0;entryDx=0;entryDy=0;" parent="1" source="T4DYZ1FT2uXp3QGceV7x-14" target="T4DYZ1FT2uXp3QGceV7x-24" edge="1">
          <mxGeometry relative="1" as="geometry" />
        </mxCell>
        <mxCell id="T4DYZ1FT2uXp3QGceV7x-14" value="&lt;font face=&quot;Comic Sans MS&quot; style=&quot;font-size: 14px&quot;&gt;&lt;b&gt;dockershim&lt;/b&gt;&lt;/font&gt;" style="rounded=1;whiteSpace=wrap;html=1;" parent="1" vertex="1">
          <mxGeometry x="-40" y="550" width="160" height="60" as="geometry" />
        </mxCell>
        <mxCell id="T4DYZ1FT2uXp3QGceV7x-16" value="&lt;font face=&quot;Comic Sans MS&quot; style=&quot;font-size: 14px&quot;&gt;&lt;b&gt;containerd&lt;/b&gt;&lt;/font&gt;" style="rounded=1;whiteSpace=wrap;html=1;" parent="1" vertex="1">
          <mxGeometry x="230" y="550" width="160" height="60" as="geometry" />
        </mxCell>
        <mxCell id="T4DYZ1FT2uXp3QGceV7x-24" value="&lt;font face=&quot;Comic Sans MS&quot; style=&quot;font-size: 14px&quot;&gt;&lt;b&gt;pause&lt;/b&gt;&lt;/font&gt;" style="rounded=1;whiteSpace=wrap;html=1;" parent="1" vertex="1">
          <mxGeometry x="250" y="990" width="120" height="60" as="geometry" />
        </mxCell>
        <mxCell id="T4DYZ1FT2uXp3QGceV7x-29" style="edgeStyle=none;rounded=0;orthogonalLoop=1;jettySize=auto;html=1;exitX=1;exitY=0.5;exitDx=0;exitDy=0;entryX=0;entryY=0.5;entryDx=0;entryDy=0;" parent="1" source="T4DYZ1FT2uXp3QGceV7x-25" target="T4DYZ1FT2uXp3QGceV7x-24" edge="1">
          <mxGeometry relative="1" as="geometry" />
        </mxCell>
        <mxCell id="T4DYZ1FT2uXp3QGceV7x-25" value="&lt;font face=&quot;Comic Sans MS&quot; style=&quot;font-size: 14px&quot;&gt;&lt;b&gt;container&lt;/b&gt;&lt;/font&gt;" style="rounded=1;whiteSpace=wrap;html=1;" parent="1" vertex="1">
          <mxGeometry x="-20" y="995" width="140" height="50" as="geometry" />
        </mxCell>
        <mxCell id="T4DYZ1FT2uXp3QGceV7x-31" value="&lt;font face=&quot;Comic Sans MS&quot;&gt;&lt;b&gt;eth0&lt;/b&gt;&lt;/font&gt;" style="rounded=0;whiteSpace=wrap;html=1;fillColor=#dae8fc;strokeColor=#6c8ebf;" parent="1" vertex="1">
          <mxGeometry x="340" y="1005" width="30" height="30" as="geometry" />
        </mxCell>
        <mxCell id="T4DYZ1FT2uXp3QGceV7x-33" style="edgeStyle=none;rounded=0;orthogonalLoop=1;jettySize=auto;html=1;exitX=1;exitY=0;exitDx=0;exitDy=0;" parent="1" source="T4DYZ1FT2uXp3QGceV7x-27" target="T4DYZ1FT2uXp3QGceV7x-27" edge="1">
          <mxGeometry relative="1" as="geometry" />
        </mxCell>
        <mxCell id="T4DYZ1FT2uXp3QGceV7x-36" value="&lt;font face=&quot;Comic Sans MS&quot;&gt;&lt;b&gt;Pod&lt;/b&gt;&lt;/font&gt;" style="text;html=1;resizable=0;autosize=1;align=center;verticalAlign=middle;points=[];fillColor=none;strokeColor=none;rounded=0;" parent="1" vertex="1">
          <mxGeometry x="-63" y="960" width="40" height="20" as="geometry" />
        </mxCell>
        <mxCell id="T4DYZ1FT2uXp3QGceV7x-37" value="&lt;font face=&quot;Comic Sans MS&quot;&gt;&lt;b&gt;2 join pause&lt;br&gt;network namespace&lt;/b&gt;&lt;/font&gt;" style="text;html=1;resizable=0;autosize=1;align=center;verticalAlign=middle;points=[];fillColor=none;strokeColor=none;rounded=0;" parent="1" vertex="1">
          <mxGeometry x="115" y="980" width="130" height="40" as="geometry" />
        </mxCell>
        <mxCell id="lgo9fEez4VAcPB54e2uQ-1" value="&lt;font face=&quot;Comic Sans MS&quot;&gt;&lt;b&gt;1 init pause cotainer&lt;br&gt;network namespace&lt;/b&gt;&lt;/font&gt;" style="text;html=1;resizable=0;autosize=1;align=center;verticalAlign=middle;points=[];fillColor=none;strokeColor=none;rounded=0;" vertex="1" parent="1">
          <mxGeometry x="10" y="755" width="140" height="40" as="geometry" />
        </mxCell>
        <mxCell id="lgo9fEez4VAcPB54e2uQ-2" value="&lt;font face=&quot;Comic Sans MS&quot; style=&quot;font-size: 14px&quot;&gt;&lt;b&gt;bridge&lt;/b&gt;&lt;/font&gt;" style="rounded=1;whiteSpace=wrap;html=1;" vertex="1" parent="1">
          <mxGeometry x="520" y="730" width="80" height="30" as="geometry" />
        </mxCell>
        <mxCell id="lgo9fEez4VAcPB54e2uQ-3" value="&lt;font face=&quot;Comic Sans MS&quot;&gt;&lt;span style=&quot;font-size: 14px&quot;&gt;&lt;b&gt;macvlan&lt;/b&gt;&lt;/span&gt;&lt;/font&gt;" style="rounded=1;whiteSpace=wrap;html=1;" vertex="1" parent="1">
          <mxGeometry x="520" y="780" width="80" height="30" as="geometry" />
        </mxCell>
        <mxCell id="lgo9fEez4VAcPB54e2uQ-4" value="&lt;font face=&quot;Comic Sans MS&quot;&gt;&lt;span style=&quot;font-size: 14px&quot;&gt;&lt;b&gt;loopback&lt;/b&gt;&lt;/span&gt;&lt;/font&gt;" style="rounded=1;whiteSpace=wrap;html=1;" vertex="1" parent="1">
          <mxGeometry x="620" y="730" width="80" height="30" as="geometry" />
        </mxCell>
        <mxCell id="lgo9fEez4VAcPB54e2uQ-5" value="&lt;font face=&quot;Comic Sans MS&quot;&gt;&lt;span style=&quot;font-size: 14px&quot;&gt;&lt;b&gt;ptp&lt;/b&gt;&lt;/span&gt;&lt;/font&gt;" style="rounded=1;whiteSpace=wrap;html=1;" vertex="1" parent="1">
          <mxGeometry x="720" y="730" width="80" height="30" as="geometry" />
        </mxCell>
        <mxCell id="lgo9fEez4VAcPB54e2uQ-7" value="&lt;font face=&quot;Comic Sans MS&quot;&gt;&lt;span style=&quot;font-size: 14px&quot;&gt;&lt;b&gt;portmap&lt;/b&gt;&lt;/span&gt;&lt;/font&gt;" style="rounded=1;whiteSpace=wrap;html=1;" vertex="1" parent="1">
          <mxGeometry x="940" y="730" width="80" height="30" as="geometry" />
        </mxCell>
        <mxCell id="lgo9fEez4VAcPB54e2uQ-8" value="&lt;font face=&quot;Comic Sans MS&quot;&gt;&lt;span style=&quot;font-size: 14px&quot;&gt;&lt;b&gt;vlan&lt;/b&gt;&lt;/span&gt;&lt;/font&gt;" style="rounded=1;whiteSpace=wrap;html=1;" vertex="1" parent="1">
          <mxGeometry x="620" y="780" width="80" height="30" as="geometry" />
        </mxCell>
        <mxCell id="lgo9fEez4VAcPB54e2uQ-9" value="&lt;font face=&quot;Comic Sans MS&quot;&gt;&lt;span style=&quot;font-size: 14px&quot;&gt;&lt;b&gt;ipvlan&lt;/b&gt;&lt;/span&gt;&lt;/font&gt;" style="rounded=1;whiteSpace=wrap;html=1;" vertex="1" parent="1">
          <mxGeometry x="720" y="780" width="80" height="30" as="geometry" />
        </mxCell>
        <mxCell id="lgo9fEez4VAcPB54e2uQ-11" value="&lt;font face=&quot;Comic Sans MS&quot;&gt;&lt;span style=&quot;font-size: 14px&quot;&gt;&lt;b&gt;dhcp&lt;/b&gt;&lt;/span&gt;&lt;/font&gt;" style="rounded=1;whiteSpace=wrap;html=1;" vertex="1" parent="1">
          <mxGeometry x="830" y="730" width="80" height="30" as="geometry" />
        </mxCell>
        <mxCell id="lgo9fEez4VAcPB54e2uQ-12" value="&lt;font face=&quot;Comic Sans MS&quot;&gt;&lt;span style=&quot;font-size: 14px&quot;&gt;&lt;b&gt;flannel&lt;/b&gt;&lt;/span&gt;&lt;/font&gt;" style="rounded=1;whiteSpace=wrap;html=1;" vertex="1" parent="1">
          <mxGeometry x="1040" y="730" width="80" height="30" as="geometry" />
        </mxCell>
        <mxCell id="lgo9fEez4VAcPB54e2uQ-13" value="&lt;font face=&quot;Comic Sans MS&quot;&gt;&lt;span style=&quot;font-size: 14px&quot;&gt;&lt;b&gt;calico&lt;/b&gt;&lt;/span&gt;&lt;/font&gt;" style="rounded=1;whiteSpace=wrap;html=1;" vertex="1" parent="1">
          <mxGeometry x="940" y="780" width="80" height="30" as="geometry" />
        </mxCell>
        <mxCell id="lgo9fEez4VAcPB54e2uQ-15" value="&lt;font face=&quot;Comic Sans MS&quot;&gt;&lt;span style=&quot;font-size: 14px&quot;&gt;&lt;b&gt;weave&lt;/b&gt;&lt;/span&gt;&lt;/font&gt;" style="rounded=1;whiteSpace=wrap;html=1;" vertex="1" parent="1">
          <mxGeometry x="1040" y="780" width="80" height="30" as="geometry" />
        </mxCell>
        <mxCell id="lgo9fEez4VAcPB54e2uQ-33" value="&lt;font face=&quot;Comic Sans MS&quot;&gt;&lt;b&gt;3 init pause container&amp;nbsp;&lt;br&gt;网络设备&amp;nbsp;&lt;/b&gt;&lt;/font&gt;" style="text;html=1;resizable=0;autosize=1;align=center;verticalAlign=middle;points=[];fillColor=none;strokeColor=none;rounded=0;" vertex="1" parent="1">
          <mxGeometry x="320" y="860" width="150" height="40" as="geometry" />
        </mxCell>
        <mxCell id="lgo9fEez4VAcPB54e2uQ-34" value="&lt;font face=&quot;Comic Sans MS&quot;&gt;&lt;b&gt;4 为pause container&amp;nbsp;&lt;br&gt;分配IP&amp;nbsp;&lt;/b&gt;&lt;/font&gt;" style="text;html=1;resizable=0;autosize=1;align=center;verticalAlign=middle;points=[];fillColor=none;strokeColor=none;rounded=0;" vertex="1" parent="1">
          <mxGeometry x="510" y="860" width="140" height="40" as="geometry" />
        </mxCell>
        <mxCell id="lgo9fEez4VAcPB54e2uQ-36" value="&lt;font face=&quot;Comic Sans MS&quot;&gt;&lt;b&gt;5 解决跨主机通信&lt;/b&gt;&lt;/font&gt;" style="text;html=1;resizable=0;autosize=1;align=center;verticalAlign=middle;points=[];fillColor=none;strokeColor=none;rounded=0;" vertex="1" parent="1">
          <mxGeometry x="835" y="880" width="110" height="20" as="geometry" />
        </mxCell>
        <mxCell id="lgo9fEez4VAcPB54e2uQ-40" style="edgeStyle=none;rounded=0;orthogonalLoop=1;jettySize=auto;html=1;exitX=1;exitY=0.5;exitDx=0;exitDy=0;" edge="1" parent="1" source="lgo9fEez4VAcPB54e2uQ-37">
          <mxGeometry relative="1" as="geometry">
            <mxPoint x="310" y="30" as="targetPoint" />
          </mxGeometry>
        </mxCell>
        <mxCell id="lgo9fEez4VAcPB54e2uQ-41" style="edgeStyle=none;rounded=0;orthogonalLoop=1;jettySize=auto;html=1;exitX=0.5;exitY=1;exitDx=0;exitDy=0;entryX=0.5;entryY=0;entryDx=0;entryDy=0;" edge="1" parent="1" source="lgo9fEez4VAcPB54e2uQ-37" target="T4DYZ1FT2uXp3QGceV7x-9">
          <mxGeometry relative="1" as="geometry" />
        </mxCell>
        <mxCell id="lgo9fEez4VAcPB54e2uQ-37" value="&lt;font face=&quot;Comic Sans MS&quot; style=&quot;font-size: 14px&quot;&gt;&lt;b&gt;kube-controller-manager&lt;/b&gt;&lt;/font&gt;" style="rounded=1;whiteSpace=wrap;html=1;" vertex="1" parent="1">
          <mxGeometry x="75" y="60" width="160" height="60" as="geometry" />
        </mxCell>
        <mxCell id="lgo9fEez4VAcPB54e2uQ-39" style="edgeStyle=none;rounded=0;orthogonalLoop=1;jettySize=auto;html=1;exitX=1;exitY=0.5;exitDx=0;exitDy=0;entryX=0;entryY=0.5;entryDx=0;entryDy=0;" edge="1" parent="1" source="lgo9fEez4VAcPB54e2uQ-38" target="T4DYZ1FT2uXp3QGceV7x-1">
          <mxGeometry relative="1" as="geometry" />
        </mxCell>
        <mxCell id="lgo9fEez4VAcPB54e2uQ-38" value="&lt;font face=&quot;Comic Sans MS&quot; style=&quot;font-size: 14px&quot;&gt;&lt;b&gt;kube-sccedu&lt;/b&gt;&lt;/font&gt;" style="rounded=1;whiteSpace=wrap;html=1;" vertex="1" parent="1">
          <mxGeometry x="70" y="-60" width="160" height="60" as="geometry" />
        </mxCell>
        <mxCell id="lgo9fEez4VAcPB54e2uQ-46" value="&lt;font face=&quot;Comic Sans MS&quot;&gt;&lt;b&gt;--cni-bin-dir (default /opt/cni/bin)&lt;/b&gt;&lt;/font&gt;" style="text;html=1;resizable=0;autosize=1;align=center;verticalAlign=middle;points=[];fillColor=none;strokeColor=none;rounded=0;dashed=1;" vertex="1" parent="1">
          <mxGeometry x="1010" y="680" width="220" height="20" as="geometry" />
        </mxCell>
        <mxCell id="lgo9fEez4VAcPB54e2uQ-49" style="edgeStyle=orthogonalEdgeStyle;curved=1;rounded=0;orthogonalLoop=1;jettySize=auto;html=1;exitX=0;exitY=0.5;exitDx=0;exitDy=0;entryX=1;entryY=0.5;entryDx=0;entryDy=0;" edge="1" parent="1" source="lgo9fEez4VAcPB54e2uQ-47" target="T4DYZ1FT2uXp3QGceV7x-14">
          <mxGeometry relative="1" as="geometry" />
        </mxCell>
        <mxCell id="lgo9fEez4VAcPB54e2uQ-47" value="&lt;font face=&quot;Comic Sans MS&quot;&gt;&lt;b&gt;--cni-conf-dir &lt;br&gt;default&amp;nbsp; etc/cni/net.d&lt;/b&gt;&lt;/font&gt;" style="rounded=0;whiteSpace=wrap;html=1;dashed=1;strokeColor=#d79b00;strokeWidth=1;fillColor=#ffe6cc;" vertex="1" parent="1">
          <mxGeometry x="300" y="680" width="180" height="50" as="geometry" />
        </mxCell>
      </root>
    </mxGraphModel>
  </diagram>
</mxfile>
